<svg width="13" height="13" viewBox="0 0 13 13" fill="none" xmlns="http://www.w3.org/2000/svg">
<g id="next 1" clip-path="url(#clip0_2_513)">
<g id="Group">
<g id="Group_2">
<path id="Vector" d="M6.85674 9.86234L12.853 3.84946C13.0493 3.65245 13.049 3.3335 12.852 3.13682C12.655 2.9403 12.3358 2.94081 12.1393 3.13784L6.49998 8.79281L0.860642 3.13763C0.66412 2.94063 0.345189 2.94012 0.148159 3.13662C0.0493898 3.23521 4.75199e-06 3.36437 4.74634e-06 3.49353C4.74071e-06 3.62236 0.0490589 3.75102 0.147142 3.84943L6.14324 9.86234C6.23764 9.95722 6.36612 10.0105 6.49998 10.0105C6.63384 10.0105 6.76216 9.95707 6.85674 9.86234Z" fill="white"/>
</g>
</g>
</g>
<defs>
<clipPath id="clip0_2_513">
<rect width="13" height="13" fill="white" transform="translate(13) rotate(90)"/>
</clipPath>
</defs>
</svg>
